<svg xmlns="http://www.w3.org/2000/svg" viewBox="0 0 158.97 30.05">
  <title>aweder-logo</title>
  <path d="M10.18,25.53A5.84,5.84,0,1,1,16,19.67v0a5.83,5.83,0,0,1-5.84,5.84ZM16,9.5v1.85A10.18,10.18,0,1,0,16,28v1.84h4.35V9.5Z" transform="translate(0.04)" style="fill: #f2eddc;fill-rule: evenodd"/>
  <polygon points="54.74 9.51 50.14 9.51 45.5 22.99 41.13 9.56 41.15 9.51 41.12 9.51 36.56 9.51 36.55 9.51 36.55 9.52 31.91 22.99 27.53 9.51 22.96 9.51 29.56 29.82 29.54 29.87 29.58 29.87 34.14 29.87 34.15 29.87 34.14 29.86 38.78 16.39 43.15 29.81 43.13 29.87 43.17 29.87 47.72 29.87 47.73 29.87 47.73 29.85 54.74 9.51" style="fill: #f2eddc;fill-rule: evenodd"/>
  <path d="M55.94,19.69a10.19,10.19,0,0,0,20.37,0" transform="translate(0.04)" style="fill: #f2eddc;fill-rule: evenodd"/>
  <path d="M60.29,15.34A5.84,5.84,0,1,1,72,14.86a3.84,3.84,0,0,1,0,.48" transform="translate(0.04)" style="fill: #243752;fill-rule: evenodd"/>
  <polygon points="79.07 19.69 92.64 19.69 92.64 15.34 79.07 15.34 79.07 19.69" style="fill: #f2eddc;fill-rule: evenodd"/>
  <path d="M105.37,25.53a5.84,5.84,0,1,1,5.83-5.85h0A5.84,5.84,0,0,1,105.37,25.53ZM111.2,0V11.35a10.18,10.18,0,1,0,0,16.68v1.84h4.35V0Z" transform="translate(0.04)" style="fill: #f2eddc;fill-rule: evenodd"/>
  <path d="M128.31,13.91a5.79,5.79,0,0,1,4.55,2.17h-9.09a5.82,5.82,0,0,1,4.54-2.17m10.19,5.78a10.35,10.35,0,0,0-.66-3.61h0a10.18,10.18,0,0,0-19,0h0a10.12,10.12,0,0,0-.66,3.61h0a10.18,10.18,0,0,0,20,2.86H133.5a5.84,5.84,0,0,1-10.89-2.18h16v-.68h0" transform="translate(0.04)" style="fill: #f2eddc;fill-rule: evenodd"/>
  <path d="M151.4,9.5a10.1,10.1,0,0,0-5.84,1.85V9.5h-4.35V29.87h4.35V19.69A5.84,5.84,0,0,1,155.93,16l3-3.13A10.16,10.16,0,0,0,151.4,9.5" transform="translate(0.04)" style="fill: #f2eddc;fill-rule: evenodd"/>
</svg>
