<svg xmlns="http://www.w3.org/2000/svg" xmlns:xlink="http://www.w3.org/1999/xlink" viewBox="0 0 158.97 29.93">
  <defs>
    <mask id="a" x="0" y="0" width="158.97" height="29.93" maskUnits="userSpaceOnUse">
      <g transform="translate(0 0)">
        <polygon points="0 29.93 66.31 29.93 158.97 29.93 158.97 0 0 0 0 29.93" style="fill: #fff;fill-rule: evenodd"/>
      </g>
    </mask>
  </defs>
  <title>aweder-logo</title>
  <path d="M10.18,25.53A5.84,5.84,0,1,1,16,19.69a5.84,5.84,0,0,1-5.84,5.84ZM16,9.5v1.85A10.18,10.18,0,1,0,16,28v1.84h4.35V9.5Z" transform="translate(0 0)" style="fill: #f2eddc;fill-rule: evenodd"/>
  <polygon points="54.7 9.51 50.1 9.51 45.46 22.99 41.09 9.56 41.11 9.51 41.08 9.51 36.52 9.51 36.51 9.51 36.51 9.52 31.87 22.99 27.49 9.51 22.92 9.51 29.52 29.82 29.5 29.87 29.54 29.87 34.1 29.87 34.11 29.87 34.1 29.86 38.74 16.39 43.11 29.81 43.09 29.87 43.13 29.87 47.68 29.87 47.69 29.87 47.69 29.85 54.7 9.51" style="fill: #f2eddc;fill-rule: evenodd"/>
  <path d="M55.94,19.69a10.19,10.19,0,0,0,20.37,0" transform="translate(0 0)" style="fill: #f2eddc;fill-rule: evenodd"/>
  <path d="M60.29,15.34a5.84,5.84,0,1,1,11.67,0" transform="translate(0 0)" style="fill: #243752;fill-rule: evenodd"/>
  <g style="mask: url(#a)">
    <polygon points="79.03 19.69 92.6 19.69 92.6 15.34 79.03 15.34 79.03 19.69" style="fill: #f2eddc;fill-rule: evenodd"/>
  </g>
  <g style="mask: url(#a)">
    <path d="M105.37,25.53a5.84,5.84,0,1,1,5.83-5.84,5.84,5.84,0,0,1-5.83,5.84ZM111.2,0V11.35a10.18,10.18,0,1,0,0,16.68v1.84h4.35V0Z" transform="translate(0 0)" style="fill: #f2eddc;fill-rule: evenodd"/>
  </g>
  <g style="mask: url(#a)">
    <path d="M128.31,13.91a5.81,5.81,0,0,1,4.55,2.17h-9.09a5.81,5.81,0,0,1,4.54-2.17m10.19,5.78a10.28,10.28,0,0,0-.66-3.61h0a10.18,10.18,0,0,0-19,0h0a10.06,10.06,0,0,0-.66,3.61v0a10.18,10.18,0,0,0,20,2.86h-4.68a5.84,5.84,0,0,1-10.89-2.18h16c0-.22,0-.45,0-.68v0" transform="translate(0 0)" style="fill: #f2eddc;fill-rule: evenodd"/>
  </g>
  <g style="mask: url(#a)">
    <path d="M151.4,9.5a10.12,10.12,0,0,0-5.84,1.85V9.5h-4.35V29.87h4.35V19.69A5.84,5.84,0,0,1,155.93,16l3-3.13A10.17,10.17,0,0,0,151.4,9.5" transform="translate(0 0)" style="fill: #f2eddc;fill-rule: evenodd"/>
  </g>
</svg>
