<?xml version="1.0" encoding="iso-8859-1"?>
<!-- Generator: Adobe Illustrator 19.0.0, SVG Export Plug-In . SVG Version: 6.00 Build 0)  -->
<svg version="1.1" id="Layer_1" xmlns="http://www.w3.org/2000/svg" xmlns:xlink="http://www.w3.org/1999/xlink" x="0px" y="0px"
	 viewBox="0 0 512.003 512.003" style="enable-background:new 0 0 512.003 512.003;" xml:space="preserve">
<g>
	<g>
		<path d="M446.263,256.885c-30.545-18.013-65.815-22.982-99.223-14.022c-6.051,1.617-11.846,3.805-17.478,6.249
			c32.861-24.111,54.435-63.825,54.435-108.73c0-52.783-30.08-100.62-76.625-121.868c-5.865-2.665-12.753-0.093-15.418,5.76
			c-2.665,5.841-0.093,12.742,5.76,15.418c38.272,17.466,63.011,56.995,63.011,100.689c0,60.556-46.976,109.812-104.727,109.812
			s-104.727-49.257-104.727-109.812c0-43.695,24.739-83.223,63.011-100.689c5.853-2.665,8.425-9.565,5.76-15.418
			s-9.553-8.436-15.418-5.76c-46.545,21.248-76.625,69.085-76.625,121.868c0,44.905,21.562,84.62,54.435,108.73
			c-5.632-2.444-11.415-4.631-17.478-6.249c-33.42-8.972-68.678-3.991-99.223,14.022c-44.3,26.135-69.888,75.567-65.175,125.929
			c0.605,6.4,6.342,11.113,12.672,10.496c6.4-0.593,11.101-6.272,10.508-12.672C19.848,339.2,40.98,298.496,77.553,276.923
			c25.1-14.801,54.028-18.921,81.385-11.59c26.007,6.97,47.593,23.622,60.742,46.895c27.951,49.466,9.437,114.06-41.286,143.977
			c-36.457,21.492-81.338,19.863-114.327-4.154c-5.213-3.793-12.463-2.63-16.256,2.56c-3.782,5.19-2.641,12.474,2.56,16.256
			c21.609,15.744,47.325,23.68,73.356,23.68c22.749,0,45.754-6.063,66.479-18.292c51.631-30.452,75.508-90.705,61.766-145.012
			c1.338,0.14,2.641,0.407,4.026,0.407c1.373,0,2.676-0.268,4.015-0.407c-13.731,54.307,10.147,114.56,61.777,145.012
			c20.724,12.23,43.729,18.292,66.479,18.292c26.031,0,51.747-7.948,73.367-23.68c5.19-3.782,6.342-11.066,2.56-16.256
			c-3.782-5.19-11.055-6.342-16.256-2.56c-33.001,24.017-77.882,25.658-114.327,4.154c-50.711-29.917-69.236-94.511-41.297-143.977
			c13.161-23.273,34.735-39.936,60.753-46.895c27.357-7.343,56.273-3.223,81.385,11.59c36.561,21.574,57.705,62.289,53.818,103.715
			c-0.593,6.4,4.119,12.078,10.508,12.672c6.33,0.593,12.067-4.108,12.672-10.496C516.151,332.44,490.574,283.008,446.263,256.885z
			 M219.168,273.804c-3.84-3.782-7.901-7.296-12.207-10.531c4.876,2.106,9.926,3.805,15.057,5.283
			C220.925,270.208,220.017,271.989,219.168,273.804z M255.997,308.376c-9.623,0-17.455-7.831-17.455-17.455
			s7.831-17.455,17.455-17.455s17.455,7.831,17.455,17.455S265.62,308.376,255.997,308.376z M292.826,273.804
			c-0.849-1.815-1.757-3.596-2.851-5.248c5.143-1.478,10.193-3.177,15.057-5.283C300.727,266.508,296.666,270.022,292.826,273.804z"
			/>
	</g>
</g>
<g>
	<g>
		<path d="M331.703,154.101c-45.824-26.519-105.565-26.519-151.343-0.035c-5.562,3.223-7.471,10.345-4.247,15.907
			c3.188,5.562,10.298,7.459,15.895,4.247c38.679-22.412,89.286-22.412,128.035,0.035c1.839,1.059,3.84,1.559,5.818,1.559
			c4.026,0,7.924-2.083,10.077-5.807C339.162,164.445,337.253,157.324,331.703,154.101z"/>
	</g>
</g>
<g>
	<g>
		<path d="M191.962,395.974c-36.34-21.039-60.09-58.496-63.523-100.189c-0.535-6.4-5.935-11.136-12.556-10.647
			c-6.412,0.524-11.171,6.144-10.647,12.556c4.073,49.292,32.128,93.568,75.066,118.412c1.839,1.059,3.84,1.571,5.818,1.571
			c4.026,0,7.924-2.083,10.077-5.807C199.421,406.307,197.512,399.186,191.962,395.974z"/>
	</g>
</g>
<g>
	<g>
		<path d="M396.11,285.149c-6.342-0.535-12.032,4.236-12.556,10.624c-3.444,41.716-27.206,79.185-63.569,100.212
			c-5.562,3.212-7.471,10.333-4.236,15.895c2.153,3.735,6.051,5.818,10.077,5.818c1.978,0,3.98-0.5,5.818-1.559
			c42.95-24.844,71.028-69.12,75.113-118.435C407.281,291.293,402.522,285.673,396.11,285.149z"/>
	</g>
</g>
<g>
</g>
<g>
</g>
<g>
</g>
<g>
</g>
<g>
</g>
<g>
</g>
<g>
</g>
<g>
</g>
<g>
</g>
<g>
</g>
<g>
</g>
<g>
</g>
<g>
</g>
<g>
</g>
<g>
</g>
</svg>
