<svg xmlns="http://www.w3.org/2000/svg" viewBox="0 0 29.67 20.73">
  <title>delivery</title>
  <path d="M6.83,19.77a2.63,2.63,0,0,1-2.58-2.15H9.41A2.62,2.62,0,0,1,6.83,19.77Z" style="fill: #f2eddc" class="hollow"></path>
  <path d="M27.18,14.6a3.59,3.59,0,1,0,1.05,2.54A3.62,3.62,0,0,0,27.18,14.6ZM26.5,19a2.63,2.63,0,0,1-1.86.77h0A2.61,2.61,0,1,1,26.5,19Z" style="fill: #243752"></path>
  <path d="M26.18,0a2.39,2.39,0,1,0,0,4.78.47.47,0,0,0,.47-.47V.48A.47.47,0,0,0,26.18,0ZM25.7,3.74a1.43,1.43,0,0,1,0-2.69Z" style="fill: #243752"></path>
  <path d="M11,5.32h5a.48.48,0,0,0,0-1H11a.48.48,0,0,0,0,1Z" style="fill: #243752"></path>
  <path d="M29.52,12.26a6.8,6.8,0,0,0-5.67-2L22,.39A.49.49,0,0,0,21.53,0h-3a.47.47,0,0,0-.48.48.48.48,0,0,0,.48.48h2.58l1.77,9.48a7,7,0,0,0-4.72,4.22L16.43,7.21A.48.48,0,0,0,16,6.84H10.31A10.31,10.31,0,0,0,0,17.14a.47.47,0,0,0,.48.48h2.8a3.58,3.58,0,0,0,7.09,0h7.91a.48.48,0,0,0,.47-.59l-.05-.19a6,6,0,0,1,10.15-3.91.47.47,0,0,0,.46.13.49.49,0,0,0,.34-.34A.46.46,0,0,0,29.52,12.26ZM6.83,19.77a2.63,2.63,0,0,1-2.58-2.15H9.41A2.62,2.62,0,0,1,6.83,19.77Zm3.1-3.11H1a9.37,9.37,0,0,1,9.34-8.87h5.27l2.1,8.87Z" style="fill: #243752"></path>
  <path d="M9.93,16.66H1a9.37,9.37,0,0,1,9.34-8.87h5.27l2.1,8.87Z" style="fill: #f2eddc" class="hollow"></path>
  <path d="M24.64,19.76A2.61,2.61,0,1,1,26.5,19a2.62,2.62,0,0,1-1.86.76Z" style="fill: #f2eddc" class="hollow"></path>
  <path d="M25.7,1.05V3.74a1.43,1.43,0,0,1,0-2.69Z" style="fill: #f2eddc" class="hollow"></path>
</svg>
