<svg xmlns="http://www.w3.org/2000/svg" viewBox="0 0 89.41 32.53">
  <title>jump-logo</title>
  <path d="M15.65,4.47a2.24,2.24,0,0,1,2.24,2.24h0V18A8.95,8.95,0,0,1,0,18v-.16A2.24,2.24,0,0,1,4.47,18h0a4.47,4.47,0,0,0,8.94,0V6.55A2.24,2.24,0,0,1,15.65,4.47Z" transform="translate(0 0)" style="fill: #424957;fill-rule: evenodd"/>
  <path d="M22.36,4.47a2.24,2.24,0,0,0-2.24,2.24h0V18A8.95,8.95,0,0,0,38,18v-.16a2.23,2.23,0,1,0-4.46.16h0a4.48,4.48,0,0,1-8.95,0V6.55A2.24,2.24,0,0,0,22.36,4.47Z" transform="translate(0 0)" style="fill: #424957;fill-rule: evenodd"/>
  <path d="M69.31,32.53a2.24,2.24,0,0,1-2.24-2.24h0v-14h0v-.56a11.17,11.17,0,1,1,4.47,9v5.74A2.24,2.24,0,0,1,69.31,32.53Zm8.94-10.06a6.71,6.71,0,1,0-6.71-6.71h0a6.7,6.7,0,0,0,6.69,6.71Z" transform="translate(0 0)" style="fill: #424957;fill-rule: evenodd"/>
  <path d="M55.89,0a9,9,0,0,1,9,8.94h0V20.39a2.24,2.24,0,0,1-4.46,0h0V8.94a4.48,4.48,0,0,0-9,0h0V20.39a2.24,2.24,0,0,1-4.46,0h0V8.94a4.47,4.47,0,0,0-8.94,0h0V9.1a2.24,2.24,0,0,1-4.46,0h0V8.94A8.94,8.94,0,0,1,49.19,3,8.9,8.9,0,0,1,55.89,0Z" transform="translate(0 0)" style="fill: #424957;fill-rule: evenodd"/>
</svg>
