<svg xmlns="http://www.w3.org/2000/svg" viewBox="0 0 10.09 13.87">
  <title>sort</title>
  <path d="M.63,5.67H9.46a.6.6,0,0,0,.44-.18A.65.65,0,0,0,10.09,5,.63.63,0,0,0,9.9,4.6L5.49.19A.61.61,0,0,0,5,0,.59.59,0,0,0,4.6.19L.19,4.6A.59.59,0,0,0,0,5a.61.61,0,0,0,.19.45A.6.6,0,0,0,.63,5.67Z" class="
sort-up"></path>
  <path d="M9.46,8.2H.63a.6.6,0,0,0-.44.18A.61.61,0,0,0,0,8.83a.59.59,0,0,0,.19.44L4.6,13.68a.59.59,0,0,0,.44.19.61.61,0,0,0,.45-.19L9.9,9.27a.63.63,0,0,0,.19-.44.65.65,0,0,0-.19-.45A.6.6,0,0,0,9.46,8.2Z" class="sort-down"></path>
</svg>
