<svg xmlns="http://www.w3.org/2000/svg" viewBox="0 0 29.63 29.63">
  <title>table</title>
  <path d="M19.49,13.38a.37.37,0,0,0-.51.14L17.62,16a.37.37,0,0,0,.14.51.39.39,0,0,0,.18,0,.37.37,0,0,0,.33-.19l1.36-2.45A.37.37,0,0,0,19.49,13.38Z" style="fill: #243752"></path>
  <path d="M18.81,17.7a.32.32,0,0,0,.14,0l1.47-.62a.36.36,0,0,0,.2-.48.37.37,0,0,0-.49-.2L18.67,17a.37.37,0,0,0,.14.71Z" style="fill: #243752"></path>
  <path d="M11.67,16.57a.39.39,0,0,0,.18,0A.37.37,0,0,0,12,16l-1.36-2.45a.37.37,0,0,0-.51-.14.37.37,0,0,0-.14.5l1.36,2.45A.37.37,0,0,0,11.67,16.57Z" style="fill: #243752"></path>
  <path d="M9.48,16.42a.37.37,0,0,0-.49.2.36.36,0,0,0,.2.48l1.47.62a.32.32,0,0,0,.14,0,.37.37,0,0,0,.14-.71Z" style="fill: #243752"></path>
  <path d="M29.26,0H.37A.38.38,0,0,0,0,.37V3.06a.38.38,0,0,0,.37.37h.94V11.7a.38.38,0,0,0,.37.37H9a.37.37,0,0,0,.37-.37V3.43h1.35V11.7a.38.38,0,0,0,.37.37h7.33a.37.37,0,0,0,.37-.37V3.43h1.35V11.7a.38.38,0,0,0,.37.37h7.34a.38.38,0,0,0,.37-.37V3.43h1a.38.38,0,0,0,.37-.37V.37A.38.38,0,0,0,29.26,0ZM8.64,11.33H2.05V3.43H8.64Zm9.42,0H11.47V3.43h6.59Zm9.43,0h-6.6V3.43h6.6Zm1.4-8.64H.74V.74H28.89Z" style="fill: #243752"></path>
  <path d="M29.26,26.2H21v-2a.37.37,0,0,0-.31-.36v-.11a5.92,5.92,0,0,0-4.91-5.81,1.28,1.28,0,1,0-2,0A5.91,5.91,0,0,0,8.9,23.69v.11a.38.38,0,0,0-.29.36v2H.37a.38.38,0,0,0-.37.37v2.69a.38.38,0,0,0,.37.37H29.26a.38.38,0,0,0,.37-.37V26.57A.38.38,0,0,0,29.26,26.2ZM14.8,16.56a.54.54,0,1,1-.53.54A.54.54,0,0,1,14.8,16.56ZM9.64,23.69a5.17,5.17,0,0,1,10.33,0v.1H9.64Zm-.29.84H20.28V26.2H9.35Zm19.54,4.36H.74V26.94H28.89Z" style="fill: #243752"></path>
  <path d="M10.6,22.92h.07a.36.36,0,0,0,.36-.3,3.51,3.51,0,0,1,2.53-2.75.37.37,0,1,0-.2-.72,4.28,4.28,0,0,0-3.06,3.34A.38.38,0,0,0,10.6,22.92Z" style="fill: #243752"></path>
  <polygon points="27.48 11.33 20.89 11.33 20.89 3.43 27.48 3.43 27.48 11.33" style="fill: #f2eddc" class="hollow"></polygon>
  <polygon points="18.06 11.33 11.47 11.33 11.47 3.43 18.06 3.43 18.06 11.33 18.06 11.33" style="fill: #f2eddc" class="hollow"></polygon>
  <polygon points="8.64 11.33 2.05 11.33 2.05 3.43 8.64 3.43 8.64 11.33" style="fill: #f2eddc" class="hollow"></polygon>
  <path d="M3.55,5.61h3.6a.38.38,0,0,0,0-.75H3.55a.38.38,0,0,0,0,.75Z" style="fill: #243752"></path>
  <path d="M3.55,7.62h3.6a.38.38,0,0,0,.37-.37.37.37,0,0,0-.37-.37H3.55a.36.36,0,0,0-.37.37A.37.37,0,0,0,3.55,7.62Z" style="fill: #243752"></path>
  <path d="M7.15,8.89H3.55a.37.37,0,0,0-.37.37.36.36,0,0,0,.37.37h3.6a.37.37,0,0,0,.37-.37A.38.38,0,0,0,7.15,8.89Z" style="fill: #243752"></path>
  <path d="M13,5.61h3.6a.38.38,0,0,0,0-.75H13a.38.38,0,0,0,0,.75Z" style="fill: #243752"></path>
  <path d="M13,7.62h3.6a.38.38,0,0,0,.37-.37.37.37,0,0,0-.37-.37H13a.36.36,0,0,0-.37.37A.37.37,0,0,0,13,7.62Z" style="fill: #243752"></path>
  <path d="M16.57,8.89H13a.37.37,0,0,0-.37.37.36.36,0,0,0,.37.37h3.6a.37.37,0,0,0,.37-.37A.38.38,0,0,0,16.57,8.89Z" style="fill: #243752"></path>
  <path d="M22.39,5.61H26a.38.38,0,0,0,0-.75h-3.6a.38.38,0,0,0,0,.75Z" style="fill: #243752"></path>
  <path d="M22.39,7.62H26a.38.38,0,0,0,.37-.37A.37.37,0,0,0,26,6.88h-3.6a.37.37,0,0,0-.37.37A.38.38,0,0,0,22.39,7.62Z" style="fill: #243752"></path>
  <path d="M26,8.89h-3.6a.38.38,0,0,0-.37.37.37.37,0,0,0,.37.37H26a.37.37,0,0,0,.37-.37A.38.38,0,0,0,26,8.89Z" style="fill: #243752"></path>
  <polygon points="9.35 24.53 20.28 24.53 20.28 26.2 9.35 26.2 9.35 24.53" style="fill: #f2eddc" class="hollow"></polygon>
  <path d="M14.8,18.53A5.17,5.17,0,0,1,20,23.69v.1H9.64v-.1A5.17,5.17,0,0,1,14.8,18.53Z" style="fill: #f2eddc" class="hollow"></path>
</svg>
